<mxfile host="app.diagrams.net" agent="Mozilla/5.0 (Macintosh; Intel Mac OS X 10_15_7) AppleWebKit/537.36 (KHTML, like Gecko) Chrome/127.0.0.0 Safari/537.36" version="24.7.8">
  <diagram name="페이지-1" id="6lUCe_v6X9mJIw6cbC5I">
    <mxGraphModel dx="1103" dy="935" grid="1" gridSize="10" guides="1" tooltips="1" connect="1" arrows="1" fold="1" page="1" pageScale="1" pageWidth="827" pageHeight="1169" math="0" shadow="0">
      <root>
        <mxCell id="0" />
        <mxCell id="1" parent="0" />
        <mxCell id="QU1-9Xz_c85mlIL20-NH-65" value="VPC" style="shape=mxgraph.ibm.box;prType=vpc;fontStyle=0;verticalAlign=top;align=left;spacingLeft=32;spacingTop=4;fillColor=none;rounded=0;whiteSpace=wrap;html=1;strokeColor=#4376BB;strokeWidth=2;dashed=0;container=1;spacing=-4;collapsible=0;expand=0;recursiveResize=0;" parent="1" vertex="1">
          <mxGeometry x="230" y="180" width="1280" height="870" as="geometry" />
        </mxCell>
        <mxCell id="QU1-9Xz_c85mlIL20-NH-64" value="Availability Zone" style="fillColor=none;strokeColor=#147EBA;dashed=1;verticalAlign=top;fontStyle=0;fontColor=#147EBA;whiteSpace=wrap;html=1;" parent="1" vertex="1">
          <mxGeometry x="260" y="200" width="1230" height="830" as="geometry" />
        </mxCell>
        <mxCell id="QU1-9Xz_c85mlIL20-NH-62" value="AWS Cloud" style="sketch=0;outlineConnect=0;gradientColor=none;html=1;whiteSpace=wrap;fontSize=12;fontStyle=0;shape=mxgraph.aws4.group;grIcon=mxgraph.aws4.group_aws_cloud;strokeColor=#AAB7B8;fillColor=none;verticalAlign=top;align=left;spacingLeft=30;fontColor=#AAB7B8;dashed=0;" parent="1" vertex="1">
          <mxGeometry x="60" y="110" width="1580" height="990" as="geometry" />
        </mxCell>
        <mxCell id="QU1-9Xz_c85mlIL20-NH-19" value="Region" style="sketch=0;outlineConnect=0;gradientColor=none;html=1;whiteSpace=wrap;fontSize=12;fontStyle=0;shape=mxgraph.aws4.group;grIcon=mxgraph.aws4.group_region;strokeColor=#879196;fillColor=none;verticalAlign=top;align=left;spacingLeft=30;fontColor=#879196;dashed=1;" parent="1" vertex="1">
          <mxGeometry x="90" y="140" width="1550" height="960" as="geometry" />
        </mxCell>
        <mxCell id="QU1-9Xz_c85mlIL20-NH-9" value="Public subnet" style="points=[[0,0],[0.25,0],[0.5,0],[0.75,0],[1,0],[1,0.25],[1,0.5],[1,0.75],[1,1],[0.75,1],[0.5,1],[0.25,1],[0,1],[0,0.75],[0,0.5],[0,0.25]];outlineConnect=0;gradientColor=none;html=1;whiteSpace=wrap;fontSize=12;fontStyle=0;container=1;pointerEvents=0;collapsible=0;recursiveResize=0;shape=mxgraph.aws4.group;grIcon=mxgraph.aws4.group_security_group;grStroke=0;strokeColor=#7AA116;fillColor=#F2F6E8;verticalAlign=top;align=left;spacingLeft=30;fontColor=#248814;dashed=0;" parent="1" vertex="1">
          <mxGeometry x="270" y="220" width="420" height="790" as="geometry" />
        </mxCell>
        <mxCell id="QU1-9Xz_c85mlIL20-NH-6" value="NAT Gateway" style="outlineConnect=0;dashed=0;verticalLabelPosition=bottom;verticalAlign=top;align=center;html=1;shape=mxgraph.aws3.vpc_nat_gateway;fillColor=#F58534;gradientColor=none;" parent="QU1-9Xz_c85mlIL20-NH-9" vertex="1">
          <mxGeometry x="170.5" y="574" width="69" height="72" as="geometry" />
        </mxCell>
        <mxCell id="QU1-9Xz_c85mlIL20-NH-5" value="web server ALB" style="outlineConnect=0;dashed=0;verticalLabelPosition=bottom;verticalAlign=top;align=center;html=1;shape=mxgraph.aws3.application_load_balancer;fillColor=#F58536;gradientColor=none;" parent="QU1-9Xz_c85mlIL20-NH-9" vertex="1">
          <mxGeometry x="170.5" y="434" width="69" height="72" as="geometry" />
        </mxCell>
        <mxCell id="QU1-9Xz_c85mlIL20-NH-4" value="Airflow ALB" style="outlineConnect=0;dashed=0;verticalLabelPosition=bottom;verticalAlign=top;align=center;html=1;shape=mxgraph.aws3.application_load_balancer;fillColor=#F58534;gradientColor=none;" parent="QU1-9Xz_c85mlIL20-NH-9" vertex="1">
          <mxGeometry x="170.5" y="294" width="69" height="72" as="geometry" />
        </mxCell>
        <mxCell id="QU1-9Xz_c85mlIL20-NH-3" value="Bastion Host" style="sketch=0;points=[[0,0,0],[0.25,0,0],[0.5,0,0],[0.75,0,0],[1,0,0],[0,1,0],[0.25,1,0],[0.5,1,0],[0.75,1,0],[1,1,0],[0,0.25,0],[0,0.5,0],[0,0.75,0],[1,0.25,0],[1,0.5,0],[1,0.75,0]];outlineConnect=0;fontColor=#232F3E;fillColor=#ED7100;strokeColor=#ffffff;dashed=0;verticalLabelPosition=bottom;verticalAlign=top;align=center;html=1;fontSize=12;fontStyle=0;aspect=fixed;shape=mxgraph.aws4.resourceIcon;resIcon=mxgraph.aws4.ec2;" parent="QU1-9Xz_c85mlIL20-NH-9" vertex="1">
          <mxGeometry x="166" y="144" width="78" height="78" as="geometry" />
        </mxCell>
        <mxCell id="QU1-9Xz_c85mlIL20-NH-38" value="Internet&#xa;gateway" style="sketch=0;outlineConnect=0;fontColor=#232F3E;gradientColor=none;strokeColor=#232F3E;fillColor=#ffffff;dashed=0;verticalLabelPosition=bottom;verticalAlign=top;align=center;html=1;fontSize=12;fontStyle=0;aspect=fixed;shape=mxgraph.aws4.resourceIcon;resIcon=mxgraph.aws4.internet_gateway;" parent="QU1-9Xz_c85mlIL20-NH-9" vertex="1">
          <mxGeometry x="-70" y="360" width="80" height="80" as="geometry" />
        </mxCell>
        <mxCell id="QU1-9Xz_c85mlIL20-NH-10" value="Private subnet" style="points=[[0,0],[0.25,0],[0.5,0],[0.75,0],[1,0],[1,0.25],[1,0.5],[1,0.75],[1,1],[0.75,1],[0.5,1],[0.25,1],[0,1],[0,0.75],[0,0.5],[0,0.25]];outlineConnect=0;gradientColor=none;html=1;whiteSpace=wrap;fontSize=12;fontStyle=0;container=1;pointerEvents=0;collapsible=0;recursiveResize=0;shape=mxgraph.aws4.group;grIcon=mxgraph.aws4.group_security_group;grStroke=0;strokeColor=#00A4A6;fillColor=#E6F6F7;verticalAlign=top;align=left;spacingLeft=30;fontColor=#147EBA;dashed=0;" parent="1" vertex="1">
          <mxGeometry x="720" y="220" width="720" height="790" as="geometry" />
        </mxCell>
        <mxCell id="QU1-9Xz_c85mlIL20-NH-11" value="Airflow" style="sketch=0;points=[[0,0,0],[0.25,0,0],[0.5,0,0],[0.75,0,0],[1,0,0],[0,1,0],[0.25,1,0],[0.5,1,0],[0.75,1,0],[1,1,0],[0,0.25,0],[0,0.5,0],[0,0.75,0],[1,0.25,0],[1,0.5,0],[1,0.75,0]];outlineConnect=0;fontColor=#232F3E;fillColor=#ED7100;strokeColor=#ffffff;dashed=0;verticalLabelPosition=bottom;verticalAlign=top;align=center;html=1;fontSize=12;fontStyle=0;aspect=fixed;shape=mxgraph.aws4.resourceIcon;resIcon=mxgraph.aws4.ec2;" parent="QU1-9Xz_c85mlIL20-NH-10" vertex="1">
          <mxGeometry x="130" y="291" width="78" height="78" as="geometry" />
        </mxCell>
        <mxCell id="QU1-9Xz_c85mlIL20-NH-14" value="web server" style="sketch=0;points=[[0,0,0],[0.25,0,0],[0.5,0,0],[0.75,0,0],[1,0,0],[0,1,0],[0.25,1,0],[0.5,1,0],[0.75,1,0],[1,1,0],[0,0.25,0],[0,0.5,0],[0,0.75,0],[1,0.25,0],[1,0.5,0],[1,0.75,0]];outlineConnect=0;fontColor=#232F3E;fillColor=#ED7100;strokeColor=#ffffff;dashed=0;verticalLabelPosition=bottom;verticalAlign=top;align=center;html=1;fontSize=12;fontStyle=0;aspect=fixed;shape=mxgraph.aws4.resourceIcon;resIcon=mxgraph.aws4.ec2;" parent="QU1-9Xz_c85mlIL20-NH-10" vertex="1">
          <mxGeometry x="130" y="431" width="78" height="78" as="geometry" />
        </mxCell>
        <mxCell id="QU1-9Xz_c85mlIL20-NH-15" value="Airflow metastore" style="sketch=0;points=[[0,0,0],[0.25,0,0],[0.5,0,0],[0.75,0,0],[1,0,0],[0,1,0],[0.25,1,0],[0.5,1,0],[0.75,1,0],[1,1,0],[0,0.25,0],[0,0.5,0],[0,0.75,0],[1,0.25,0],[1,0.5,0],[1,0.75,0]];outlineConnect=0;fontColor=#232F3E;fillColor=#C925D1;strokeColor=#ffffff;dashed=0;verticalLabelPosition=bottom;verticalAlign=top;align=center;html=1;fontSize=12;fontStyle=0;aspect=fixed;shape=mxgraph.aws4.resourceIcon;resIcon=mxgraph.aws4.rds;" parent="QU1-9Xz_c85mlIL20-NH-10" vertex="1">
          <mxGeometry x="321" y="291" width="78" height="78" as="geometry" />
        </mxCell>
        <mxCell id="QU1-9Xz_c85mlIL20-NH-17" value="production DB" style="sketch=0;points=[[0,0,0],[0.25,0,0],[0.5,0,0],[0.75,0,0],[1,0,0],[0,1,0],[0.25,1,0],[0.5,1,0],[0.75,1,0],[1,1,0],[0,0.25,0],[0,0.5,0],[0,0.75,0],[1,0.25,0],[1,0.5,0],[1,0.75,0]];outlineConnect=0;fontColor=#232F3E;fillColor=#C925D1;strokeColor=#ffffff;dashed=0;verticalLabelPosition=bottom;verticalAlign=top;align=center;html=1;fontSize=12;fontStyle=0;aspect=fixed;shape=mxgraph.aws4.resourceIcon;resIcon=mxgraph.aws4.rds;" parent="QU1-9Xz_c85mlIL20-NH-10" vertex="1">
          <mxGeometry x="321" y="431" width="78" height="78" as="geometry" />
        </mxCell>
        <mxCell id="QU1-9Xz_c85mlIL20-NH-18" value="Redshift" style="sketch=0;points=[[0,0,0],[0.25,0,0],[0.5,0,0],[0.75,0,0],[1,0,0],[0,1,0],[0.25,1,0],[0.5,1,0],[0.75,1,0],[1,1,0],[0,0.25,0],[0,0.5,0],[0,0.75,0],[1,0.25,0],[1,0.5,0],[1,0.75,0]];outlineConnect=0;fontColor=#232F3E;fillColor=#8C4FFF;strokeColor=#ffffff;dashed=0;verticalLabelPosition=bottom;verticalAlign=top;align=center;html=1;fontSize=12;fontStyle=0;aspect=fixed;shape=mxgraph.aws4.resourceIcon;resIcon=mxgraph.aws4.redshift;" parent="QU1-9Xz_c85mlIL20-NH-10" vertex="1">
          <mxGeometry x="521" y="431" width="78" height="78" as="geometry" />
        </mxCell>
        <mxCell id="QU1-9Xz_c85mlIL20-NH-13" value="BI tool" style="sketch=0;points=[[0,0,0],[0.25,0,0],[0.5,0,0],[0.75,0,0],[1,0,0],[0,1,0],[0.25,1,0],[0.5,1,0],[0.75,1,0],[1,1,0],[0,0.25,0],[0,0.5,0],[0,0.75,0],[1,0.25,0],[1,0.5,0],[1,0.75,0]];outlineConnect=0;fontColor=#232F3E;fillColor=#ED7100;strokeColor=#ffffff;dashed=0;verticalLabelPosition=bottom;verticalAlign=top;align=center;html=1;fontSize=12;fontStyle=0;aspect=fixed;shape=mxgraph.aws4.resourceIcon;resIcon=mxgraph.aws4.ec2;" parent="QU1-9Xz_c85mlIL20-NH-10" vertex="1">
          <mxGeometry x="130" y="140" width="78" height="78" as="geometry" />
        </mxCell>
        <mxCell id="QU1-9Xz_c85mlIL20-NH-43" style="edgeStyle=orthogonalEdgeStyle;rounded=0;orthogonalLoop=1;jettySize=auto;html=1;exitX=0;exitY=0.5;exitDx=0;exitDy=0;exitPerimeter=0;entryX=1;entryY=0.5;entryDx=0;entryDy=0;entryPerimeter=0;" parent="QU1-9Xz_c85mlIL20-NH-10" source="QU1-9Xz_c85mlIL20-NH-17" target="QU1-9Xz_c85mlIL20-NH-14" edge="1">
          <mxGeometry relative="1" as="geometry" />
        </mxCell>
        <mxCell id="QU1-9Xz_c85mlIL20-NH-54" value="" style="endArrow=classic;startArrow=classic;html=1;rounded=0;" parent="QU1-9Xz_c85mlIL20-NH-10" source="QU1-9Xz_c85mlIL20-NH-11" target="QU1-9Xz_c85mlIL20-NH-15" edge="1">
          <mxGeometry width="50" height="50" relative="1" as="geometry">
            <mxPoint x="510" y="440" as="sourcePoint" />
            <mxPoint x="560" y="390" as="targetPoint" />
          </mxGeometry>
        </mxCell>
        <mxCell id="QU1-9Xz_c85mlIL20-NH-26" style="edgeStyle=orthogonalEdgeStyle;rounded=0;orthogonalLoop=1;jettySize=auto;html=1;exitX=1;exitY=0.5;exitDx=0;exitDy=0;exitPerimeter=0;entryX=0;entryY=0.5;entryDx=0;entryDy=0;entryPerimeter=0;" parent="1" source="QU1-9Xz_c85mlIL20-NH-5" target="QU1-9Xz_c85mlIL20-NH-14" edge="1">
          <mxGeometry relative="1" as="geometry" />
        </mxCell>
        <mxCell id="QU1-9Xz_c85mlIL20-NH-40" style="edgeStyle=orthogonalEdgeStyle;rounded=0;orthogonalLoop=1;jettySize=auto;html=1;exitX=1;exitY=0.5;exitDx=0;exitDy=0;exitPerimeter=0;entryX=0;entryY=0.5;entryDx=0;entryDy=0;entryPerimeter=0;" parent="1" source="QU1-9Xz_c85mlIL20-NH-4" target="QU1-9Xz_c85mlIL20-NH-13" edge="1">
          <mxGeometry relative="1" as="geometry">
            <Array as="points">
              <mxPoint x="700" y="550" />
              <mxPoint x="700" y="399" />
            </Array>
          </mxGeometry>
        </mxCell>
        <mxCell id="QU1-9Xz_c85mlIL20-NH-46" value="raw data" style="sketch=0;points=[[0,0,0],[0.25,0,0],[0.5,0,0],[0.75,0,0],[1,0,0],[0,1,0],[0.25,1,0],[0.5,1,0],[0.75,1,0],[1,1,0],[0,0.25,0],[0,0.5,0],[0,0.75,0],[1,0.25,0],[1,0.5,0],[1,0.75,0]];outlineConnect=0;fontColor=#232F3E;fillColor=#7AA116;strokeColor=#ffffff;dashed=0;verticalLabelPosition=bottom;verticalAlign=top;align=center;html=1;fontSize=12;fontStyle=0;aspect=fixed;shape=mxgraph.aws4.resourceIcon;resIcon=mxgraph.aws4.s3;" parent="1" vertex="1">
          <mxGeometry x="1540" y="800" width="80" height="80" as="geometry" />
        </mxCell>
        <mxCell id="QU1-9Xz_c85mlIL20-NH-67" style="edgeStyle=orthogonalEdgeStyle;rounded=0;orthogonalLoop=1;jettySize=auto;html=1;exitX=0;exitY=0.5;exitDx=0;exitDy=0;exitPerimeter=0;entryX=0.5;entryY=0;entryDx=0;entryDy=0;entryPerimeter=0;" parent="1" source="QU1-9Xz_c85mlIL20-NH-47" target="QU1-9Xz_c85mlIL20-NH-11" edge="1">
          <mxGeometry relative="1" as="geometry" />
        </mxCell>
        <mxCell id="QU1-9Xz_c85mlIL20-NH-47" value="Airflow dags file" style="sketch=0;points=[[0,0,0],[0.25,0,0],[0.5,0,0],[0.75,0,0],[1,0,0],[0,1,0],[0.25,1,0],[0.5,1,0],[0.75,1,0],[1,1,0],[0,0.25,0],[0,0.5,0],[0,0.75,0],[1,0.25,0],[1,0.5,0],[1,0.75,0]];outlineConnect=0;fontColor=#232F3E;fillColor=#7AA116;strokeColor=#ffffff;dashed=0;verticalLabelPosition=bottom;verticalAlign=top;align=center;html=1;fontSize=12;fontStyle=0;aspect=fixed;shape=mxgraph.aws4.resourceIcon;resIcon=mxgraph.aws4.s3;" parent="1" vertex="1">
          <mxGeometry x="1540" y="439" width="78" height="78" as="geometry" />
        </mxCell>
        <mxCell id="QU1-9Xz_c85mlIL20-NH-48" value="Airflow log file" style="sketch=0;points=[[0,0,0],[0.25,0,0],[0.5,0,0],[0.75,0,0],[1,0,0],[0,1,0],[0.25,1,0],[0.5,1,0],[0.75,1,0],[1,1,0],[0,0.25,0],[0,0.5,0],[0,0.75,0],[1,0.25,0],[1,0.5,0],[1,0.75,0]];outlineConnect=0;fontColor=#232F3E;fillColor=#7AA116;strokeColor=#ffffff;dashed=0;verticalLabelPosition=bottom;verticalAlign=top;align=center;html=1;fontSize=12;fontStyle=0;aspect=fixed;shape=mxgraph.aws4.resourceIcon;resIcon=mxgraph.aws4.s3;" parent="1" vertex="1">
          <mxGeometry x="1540" y="561" width="78" height="78" as="geometry" />
        </mxCell>
        <mxCell id="QU1-9Xz_c85mlIL20-NH-49" value="raw data" style="sketch=0;points=[[0,0,0],[0.25,0,0],[0.5,0,0],[0.75,0,0],[1,0,0],[0,1,0],[0.25,1,0],[0.5,1,0],[0.75,1,0],[1,1,0],[0,0.25,0],[0,0.5,0],[0,0.75,0],[1,0.25,0],[1,0.5,0],[1,0.75,0]];outlineConnect=0;fontColor=#232F3E;fillColor=#7AA116;strokeColor=#ffffff;dashed=0;verticalLabelPosition=bottom;verticalAlign=top;align=center;html=1;fontSize=12;fontStyle=0;aspect=fixed;shape=mxgraph.aws4.resourceIcon;resIcon=mxgraph.aws4.s3;" parent="1" vertex="1">
          <mxGeometry x="1540" y="680" width="78" height="78" as="geometry" />
        </mxCell>
        <mxCell id="QU1-9Xz_c85mlIL20-NH-51" value="" style="outlineConnect=0;dashed=0;verticalLabelPosition=bottom;verticalAlign=top;align=center;html=1;shape=mxgraph.aws3.lambda_function;fillColor=#F58534;gradientColor=none;" parent="1" vertex="1">
          <mxGeometry x="1450" y="455" width="50" height="46" as="geometry" />
        </mxCell>
        <mxCell id="3Mw_jPz-J-qDHJIwt6Fw-2" style="edgeStyle=none;curved=1;rounded=0;orthogonalLoop=1;jettySize=auto;html=1;exitX=1;exitY=0.5;exitDx=0;exitDy=0;exitPerimeter=0;fontSize=12;startSize=8;endSize=8;" edge="1" parent="1" source="QU1-9Xz_c85mlIL20-NH-4" target="QU1-9Xz_c85mlIL20-NH-11">
          <mxGeometry relative="1" as="geometry" />
        </mxCell>
      </root>
    </mxGraphModel>
  </diagram>
</mxfile>
